<svg xmlns="http://www.w3.org/2000/svg" xmlns:xlink="http://www.w3.org/1999/xlink" width="500" zoomAndPan="magnify" viewBox="0 0 375 374.999991" height="500" preserveAspectRatio="xMidYMid meet" version="1.0"><defs><g/><clipPath id="e70d23566c"><path d="M 17.25 0 L 357.75 0 C 362.324219 0 366.710938 1.816406 369.949219 5.050781 C 373.183594 8.289062 375 12.675781 375 17.25 L 375 357.75 C 375 362.324219 373.183594 366.710938 369.949219 369.949219 C 366.710938 373.183594 362.324219 375 357.75 375 L 17.25 375 C 12.675781 375 8.289062 373.183594 5.050781 369.949219 C 1.816406 366.710938 0 362.324219 0 357.75 L 0 17.25 C 0 12.675781 1.816406 8.289062 5.050781 5.050781 C 8.289062 1.816406 12.675781 0 17.25 0 Z M 17.25 0 " clip-rule="nonzero"/></clipPath></defs><g clip-path="url(#e70d23566c)"><rect x="-37.5" width="450" fill="#000000" y="-37.499999" height="449.999989" fill-opacity="1"/></g><g fill="#ffffff" fill-opacity="1"><g transform="translate(141.667968, 244.499984)"><g><path d="M 37.34375 -55.203125 C 27.644531 -55.703125 20.09375 -58.125 14.6875 -62.46875 C 9.289062 -66.820312 6.59375 -72.445312 6.59375 -79.34375 C 6.59375 -87.75 9.941406 -94.398438 16.640625 -99.296875 C 23.347656 -104.203125 33.148438 -106.65625 46.046875 -106.65625 C 58.953125 -106.65625 68.703125 -104.351562 75.296875 -99.75 C 81.898438 -95.144531 85.203125 -88.96875 85.203125 -81.21875 C 85.203125 -73.46875 82.648438 -67.367188 77.546875 -62.921875 C 72.453125 -58.472656 65.101562 -55.898438 55.5 -55.203125 L 55.5 -54.75 C 77.101562 -52.945312 87.90625 -43.796875 87.90625 -27.296875 C 87.90625 -17.703125 84.53125 -10.503906 77.78125 -5.703125 C 71.03125 -0.898438 60.503906 1.5 46.203125 1.5 C 17.898438 1.5 3.75 -8.050781 3.75 -27.15625 C 3.75 -44.050781 14.945312 -53.25 37.34375 -54.75 Z M 59.25 -27.375 C 59.25 -36.625 58.347656 -43.25 56.546875 -47.25 C 54.742188 -51.25 51.269531 -53.25 46.125 -53.25 C 40.976562 -53.25 37.503906 -51.222656 35.703125 -47.171875 C 33.898438 -43.117188 33 -36.46875 33 -27.21875 C 33 -17.96875 33.875 -11.394531 35.625 -7.5 C 37.375 -3.601562 40.898438 -1.65625 46.203125 -1.65625 C 51.503906 -1.65625 55.003906 -3.628906 56.703125 -7.578125 C 58.398438 -11.523438 59.25 -18.125 59.25 -27.375 Z M 46.1875 -103.5 C 41.789062 -103.5 38.96875 -101.722656 37.71875 -98.171875 C 36.46875 -94.617188 35.84375 -89.816406 35.84375 -83.765625 C 35.84375 -77.722656 35.894531 -73.675781 36 -71.625 C 36.101562 -69.570312 36.328125 -67.445312 36.671875 -65.25 C 37.023438 -63.050781 37.601562 -61.398438 38.40625 -60.296875 C 40.101562 -57.898438 42.851562 -56.703125 46.65625 -56.703125 C 50.050781 -56.703125 52.597656 -57.898438 54.296875 -60.296875 C 55.597656 -62.203125 56.296875 -65.03125 56.390625 -68.78125 C 56.492188 -72.53125 56.546875 -77.476562 56.546875 -83.625 C 56.546875 -89.769531 55.921875 -94.617188 54.671875 -98.171875 C 53.421875 -101.722656 50.59375 -103.5 46.1875 -103.5 Z M 46.1875 -103.5 "/></g></g></g></svg>