<svg xmlns="http://www.w3.org/2000/svg" xmlns:xlink="http://www.w3.org/1999/xlink" width="500" zoomAndPan="magnify" viewBox="0 0 375 374.999991" height="500" preserveAspectRatio="xMidYMid meet" version="1.0"><defs><g/><clipPath id="1368e59da3"><path d="M 187.5 0 C 83.945312 0 0 83.945312 0 187.5 C 0 291.054688 83.945312 375 187.5 375 C 291.054688 375 375 291.054688 375 187.5 C 375 83.945312 291.054688 0 187.5 0 Z M 187.5 0 " clip-rule="nonzero"/></clipPath></defs><g clip-path="url(#1368e59da3)"><rect x="-37.5" width="450" fill="#000000" y="-37.499999" height="449.999989" fill-opacity="1"/></g><g fill="#ffffff" fill-opacity="1"><g transform="translate(140.226558, 254.999983)"><g><path d="M 27.234375 -65.65625 C 21.191406 -68.257812 16.816406 -71.757812 14.109375 -76.15625 C 11.398438 -80.5625 10.046875 -85.445312 10.046875 -90.8125 C 10.046875 -99.832031 13.1875 -107.328125 19.46875 -113.296875 C 25.75 -119.273438 34.726562 -122.265625 46.40625 -122.265625 C 57.96875 -122.265625 66.941406 -119.273438 73.328125 -113.296875 C 79.722656 -107.328125 82.921875 -99.832031 82.921875 -90.8125 C 82.921875 -85.113281 81.484375 -80.09375 78.609375 -75.75 C 75.734375 -71.40625 71.640625 -68.039062 66.328125 -65.65625 C 73.023438 -62.894531 78.128906 -58.9375 81.640625 -53.78125 C 85.148438 -48.632812 86.90625 -42.601562 86.90625 -35.6875 C 86.90625 -24.457031 83.320312 -15.328125 76.15625 -8.296875 C 68.988281 -1.273438 59.457031 2.234375 47.5625 2.234375 C 35.882812 2.234375 26.195312 -1.109375 18.5 -7.796875 C 10.8125 -14.492188 6.96875 -23.515625 6.96875 -34.859375 C 6.96875 -41.441406 8.585938 -47.472656 11.828125 -52.953125 C 15.066406 -58.429688 20.203125 -62.664062 27.234375 -65.65625 Z M 31.953125 -89.0625 C 31.953125 -84.414062 33.28125 -80.789062 35.9375 -78.1875 C 38.59375 -75.59375 42.082031 -74.296875 46.40625 -74.296875 C 50.832031 -74.296875 54.375 -75.625 57.03125 -78.28125 C 59.6875 -80.9375 61.015625 -84.585938 61.015625 -89.234375 C 61.015625 -93.546875 59.710938 -97.03125 57.109375 -99.6875 C 54.503906 -102.34375 51.046875 -103.671875 46.734375 -103.671875 C 42.191406 -103.671875 38.59375 -102.34375 35.9375 -99.6875 C 33.28125 -97.03125 31.953125 -93.488281 31.953125 -89.0625 Z M 29.890625 -37.015625 C 29.890625 -30.597656 31.535156 -25.601562 34.828125 -22.03125 C 38.117188 -18.46875 42.195312 -16.6875 47.0625 -16.6875 C 51.9375 -16.6875 55.9375 -18.414062 59.0625 -21.875 C 62.1875 -25.332031 63.75 -30.269531 63.75 -36.6875 C 63.75 -42.5 62.15625 -47.132812 58.96875 -50.59375 C 55.789062 -54.050781 51.710938 -55.78125 46.734375 -55.78125 C 41.085938 -55.78125 36.867188 -53.785156 34.078125 -49.796875 C 31.285156 -45.816406 29.890625 -41.554688 29.890625 -37.015625 Z M 29.890625 -37.015625 "/></g></g></g></svg>