<svg xmlns="http://www.w3.org/2000/svg" xmlns:xlink="http://www.w3.org/1999/xlink" width="500" zoomAndPan="magnify" viewBox="0 0 375 374.999991" height="500" preserveAspectRatio="xMidYMid meet" version="1.0"><defs><g/><clipPath id="331113cee6"><path d="M 187.5 0 C 83.945312 0 0 83.945312 0 187.5 C 0 291.054688 83.945312 375 187.5 375 C 291.054688 375 375 291.054688 375 187.5 C 375 83.945312 291.054688 0 187.5 0 Z M 187.5 0 " clip-rule="nonzero"/></clipPath></defs><g clip-path="url(#331113cee6)"><rect x="-37.5" width="450" fill="#000000" y="-37.499999" height="449.999989" fill-opacity="1"/></g><g fill="#ffffff" fill-opacity="1"><g transform="translate(92.953123, 254.999983)"><g><path d="M 66.984375 0 L 43.5 0 L 43.5 -87.90625 C 35.03125 -79.9375 25.015625 -74.039062 13.453125 -70.21875 L 13.453125 -91.46875 C 19.535156 -93.40625 26.144531 -97.140625 33.28125 -102.671875 C 40.425781 -108.210938 45.328125 -114.742188 47.984375 -122.265625 L 66.984375 -122.265625 Z M 66.984375 0 "/></g></g></g><g fill="#ffffff" fill-opacity="1"><g transform="translate(187.494671, 254.999983)"><g><path d="M 66.984375 0 L 43.5 0 L 43.5 -87.90625 C 35.03125 -79.9375 25.015625 -74.039062 13.453125 -70.21875 L 13.453125 -91.46875 C 19.535156 -93.40625 26.144531 -97.140625 33.28125 -102.671875 C 40.425781 -108.210938 45.328125 -114.742188 47.984375 -122.265625 L 66.984375 -122.265625 Z M 66.984375 0 "/></g></g></g></svg>