<svg xmlns="http://www.w3.org/2000/svg" xmlns:xlink="http://www.w3.org/1999/xlink" width="500" zoomAndPan="magnify" viewBox="0 0 375 374.999991" height="500" preserveAspectRatio="xMidYMid meet" version="1.0"><defs><g/><clipPath id="82de7151dd"><path d="M 187.5 0 C 83.945312 0 0 83.945312 0 187.5 C 0 291.054688 83.945312 375 187.5 375 C 291.054688 375 375 291.054688 375 187.5 C 375 83.945312 291.054688 0 187.5 0 Z M 187.5 0 " clip-rule="nonzero"/></clipPath></defs><g clip-path="url(#82de7151dd)"><rect x="-37.5" width="450" fill="#000000" y="-37.499999" height="449.999989" fill-opacity="1"/></g><g fill="#ffffff" fill-opacity="1"><g transform="translate(92.953123, 254.999983)"><g><path d="M 86 -21.578125 L 86 0 L 4.234375 0 C 5.171875 -8.132812 7.835938 -15.894531 12.234375 -23.28125 C 16.640625 -30.664062 25.375 -40.421875 38.4375 -52.546875 C 49.945312 -63.222656 56.847656 -70.582031 59.140625 -74.625 C 61.441406 -78.664062 62.59375 -82.675781 62.59375 -86.65625 C 62.59375 -91.914062 61.191406 -95.925781 58.390625 -98.6875 C 55.597656 -101.457031 51.710938 -102.84375 46.734375 -102.84375 C 41.859375 -102.84375 38.007812 -101.375 35.1875 -98.4375 C 32.375 -95.507812 30.742188 -90.644531 30.296875 -83.84375 L 6.96875 -86.15625 C 8.351562 -99 12.695312 -108.226562 20 -113.84375 C 27.3125 -119.457031 36.441406 -122.265625 47.390625 -122.265625 C 59.398438 -122.265625 68.835938 -119 75.703125 -112.46875 C 82.566406 -105.945312 86 -97.925781 86 -88.40625 C 86 -82.875 85.015625 -77.628906 83.046875 -72.671875 C 81.085938 -67.722656 78.003906 -62.535156 73.796875 -57.109375 C 70.972656 -53.515625 65.863281 -48.335938 58.46875 -41.578125 C 51.082031 -34.828125 46.40625 -30.34375 44.4375 -28.125 C 42.476562 -25.914062 40.863281 -23.734375 39.59375 -21.578125 Z M 86 -21.578125 "/></g></g></g><g fill="#ffffff" fill-opacity="1"><g transform="translate(187.494671, 254.999983)"><g><path d="M 7.640625 -28.21875 L 30.296875 -30.625 C 31.398438 -21.664062 35.910156 -17.1875 43.828125 -17.1875 C 48.585938 -17.1875 52.664062 -19.398438 56.0625 -23.828125 C 59.46875 -28.253906 61.644531 -37.410156 62.59375 -51.296875 C 56.664062 -44.546875 49.332031 -41.171875 40.59375 -41.171875 C 30.957031 -41.171875 22.695312 -44.847656 15.8125 -52.203125 C 8.925781 -59.566406 5.484375 -69.195312 5.484375 -81.09375 C 5.484375 -93.320312 9.132812 -103.238281 16.4375 -110.84375 C 23.738281 -118.457031 33.0625 -122.265625 44.40625 -122.265625 C 56.75 -122.265625 66.875 -117.460938 74.78125 -107.859375 C 82.695312 -98.265625 86.65625 -82.535156 86.65625 -60.671875 C 86.65625 -38.484375 82.519531 -22.453125 74.25 -12.578125 C 65.976562 -2.703125 55.285156 2.234375 42.171875 2.234375 C 32.648438 2.234375 24.941406 -0.320312 19.046875 -5.4375 C 13.148438 -10.550781 9.347656 -18.144531 7.640625 -28.21875 Z M 60.515625 -79.03125 C 60.515625 -86.664062 58.785156 -92.539062 55.328125 -96.65625 C 51.867188 -100.78125 47.867188 -102.84375 43.328125 -102.84375 C 39.015625 -102.84375 35.445312 -101.140625 32.625 -97.734375 C 29.800781 -94.335938 28.390625 -88.789062 28.390625 -81.09375 C 28.390625 -73.1875 29.925781 -67.378906 33 -63.671875 C 36.070312 -59.960938 39.929688 -58.109375 44.578125 -58.109375 C 49.054688 -58.109375 52.832031 -59.890625 55.90625 -63.453125 C 58.976562 -67.023438 60.515625 -72.21875 60.515625 -79.03125 Z M 60.515625 -79.03125 "/></g></g></g></svg>