<svg xmlns="http://www.w3.org/2000/svg" xmlns:xlink="http://www.w3.org/1999/xlink" width="500" zoomAndPan="magnify" viewBox="0 0 375 374.999991" height="500" preserveAspectRatio="xMidYMid meet" version="1.0"><defs><g/><clipPath id="3b9b4f0610"><path d="M 17.25 0 L 357.75 0 C 362.324219 0 366.710938 1.816406 369.949219 5.050781 C 373.183594 8.289062 375 12.675781 375 17.25 L 375 357.75 C 375 362.324219 373.183594 366.710938 369.949219 369.949219 C 366.710938 373.183594 362.324219 375 357.75 375 L 17.25 375 C 12.675781 375 8.289062 373.183594 5.050781 369.949219 C 1.816406 366.710938 0 362.324219 0 357.75 L 0 17.25 C 0 12.675781 1.816406 8.289062 5.050781 5.050781 C 8.289062 1.816406 12.675781 0 17.25 0 Z M 17.25 0 " clip-rule="nonzero"/></clipPath></defs><g clip-path="url(#3b9b4f0610)"><rect x="-37.5" width="450" fill="#000000" y="-37.499999" height="449.999989" fill-opacity="1"/></g><g fill="#ffffff" fill-opacity="1"><g transform="translate(146.097655, 244.499984)"><g><path d="M 5.25 -83.703125 C 5.25 -90.398438 8.148438 -95.898438 13.953125 -100.203125 C 19.753906 -104.503906 28.453125 -106.65625 40.046875 -106.65625 C 51.648438 -106.65625 60.578125 -104.503906 66.828125 -100.203125 C 73.078125 -95.898438 76.203125 -89.445312 76.203125 -80.84375 C 76.203125 -78.050781 75.953125 -75.53125 75.453125 -73.28125 C 74.953125 -71.03125 73.828125 -68.675781 72.078125 -66.21875 C 70.328125 -63.769531 68.625 -61.59375 66.96875 -59.6875 C 65.320312 -57.789062 62.5 -55.296875 58.5 -52.203125 C 52.5 -47.398438 46.195312 -42.625 39.59375 -37.875 C 33 -33.125 29.148438 -30.347656 28.046875 -29.546875 L 18.90625 -22.953125 L 54.90625 -22.953125 C 61.800781 -22.953125 66.695312 -24.453125 69.59375 -27.453125 C 72.5 -30.453125 74.550781 -35.148438 75.75 -41.546875 L 78.296875 -41.546875 L 76.796875 0 L 6.296875 0 L 6.296875 -17.40625 L 21.453125 -31.34375 C 31.753906 -40.75 39.050781 -49.125 43.34375 -56.46875 C 47.644531 -63.820312 49.796875 -71.921875 49.796875 -80.765625 C 49.796875 -89.617188 48.84375 -95.671875 46.9375 -98.921875 C 45.039062 -102.171875 41.84375 -103.796875 37.34375 -103.796875 C 32.84375 -103.796875 29.691406 -102.644531 27.890625 -100.34375 C 26.097656 -98.050781 25.203125 -95.851562 25.203125 -93.75 C 25.203125 -91.644531 25.5 -89.796875 26.09375 -88.203125 L 30.59375 -88.203125 C 31.394531 -86.097656 31.796875 -83.570312 31.796875 -80.625 C 31.796875 -77.675781 30.546875 -75.125 28.046875 -72.96875 C 25.546875 -70.820312 22.242188 -69.75 18.140625 -69.75 C 14.046875 -69.75 10.875 -71.070312 8.625 -73.71875 C 6.375 -76.375 5.25 -79.703125 5.25 -83.703125 Z M 5.25 -83.703125 "/></g></g></g></svg>