<svg xmlns="http://www.w3.org/2000/svg" xmlns:xlink="http://www.w3.org/1999/xlink" width="500" zoomAndPan="magnify" viewBox="0 0 375 374.999991" height="500" preserveAspectRatio="xMidYMid meet" version="1.0"><defs><g/><clipPath id="99f83eb51f"><path d="M 17.25 0 L 357.75 0 C 362.324219 0 366.710938 1.816406 369.949219 5.050781 C 373.183594 8.289062 375 12.675781 375 17.25 L 375 357.75 C 375 362.324219 373.183594 366.710938 369.949219 369.949219 C 366.710938 373.183594 362.324219 375 357.75 375 L 17.25 375 C 12.675781 375 8.289062 373.183594 5.050781 369.949219 C 1.816406 366.710938 0 362.324219 0 357.75 L 0 17.25 C 0 12.675781 1.816406 8.289062 5.050781 5.050781 C 8.289062 1.816406 12.675781 0 17.25 0 Z M 17.25 0 " clip-rule="nonzero"/></clipPath></defs><g clip-path="url(#99f83eb51f)"><rect x="-37.5" width="450" fill="#000000" y="-37.499999" height="449.999989" fill-opacity="1"/></g><g fill="#ffffff" fill-opacity="1"><g transform="translate(142.26562, 244.499984)"><g><path d="M 27.296875 0 L 27.296875 -2.84375 L 41.40625 -2.84375 L 41.40625 -26.84375 L 0.75 -26.84375 L 0.75 -29.703125 L 43.046875 -105 L 69 -105 L 69 -30.453125 L 83.84375 -30.453125 L 83.84375 -43.5 L 86.703125 -43.5 L 86.703125 -15.75 L 83.84375 -15.75 L 83.84375 -26.84375 L 69 -26.84375 L 69 -2.84375 L 79.34375 -2.84375 L 79.34375 0 Z M 5.546875 -30.453125 L 41.40625 -30.453125 L 41.40625 -93.59375 Z M 5.546875 -30.453125 "/></g></g></g></svg>