<svg xmlns="http://www.w3.org/2000/svg" xmlns:xlink="http://www.w3.org/1999/xlink" width="500" zoomAndPan="magnify" viewBox="0 0 375 374.999991" height="500" preserveAspectRatio="xMidYMid meet" version="1.0"><defs><g/><clipPath id="0a29f04063"><path d="M 187.5 0 C 83.945312 0 0 83.945312 0 187.5 C 0 291.054688 83.945312 375 187.5 375 C 291.054688 375 375 291.054688 375 187.5 C 375 83.945312 291.054688 0 187.5 0 Z M 187.5 0 " clip-rule="nonzero"/></clipPath></defs><g clip-path="url(#0a29f04063)"><rect x="-37.5" width="450" fill="#000000" y="-37.499999" height="449.999989" fill-opacity="1"/></g><g fill="#ffffff" fill-opacity="1"><g transform="translate(92.953123, 254.999983)"><g><path d="M 66.984375 0 L 43.5 0 L 43.5 -87.90625 C 35.03125 -79.9375 25.015625 -74.039062 13.453125 -70.21875 L 13.453125 -91.46875 C 19.535156 -93.40625 26.144531 -97.140625 33.28125 -102.671875 C 40.425781 -108.210938 45.328125 -114.742188 47.984375 -122.265625 L 66.984375 -122.265625 Z M 66.984375 0 "/></g></g></g><g fill="#ffffff" fill-opacity="1"><g transform="translate(187.494671, 254.999983)"><g><path d="M 6.46875 -32.296875 L 28.890625 -35.03125 C 29.660156 -29.21875 31.609375 -24.816406 34.734375 -21.828125 C 37.859375 -18.835938 41.691406 -17.34375 46.234375 -17.34375 C 50.992188 -17.34375 55.046875 -19.15625 58.390625 -22.78125 C 61.742188 -26.40625 63.421875 -31.347656 63.421875 -37.609375 C 63.421875 -43.359375 61.828125 -47.960938 58.640625 -51.421875 C 55.460938 -54.878906 51.601562 -56.609375 47.0625 -56.609375 C 44.019531 -56.609375 40.453125 -56.054688 36.359375 -54.953125 L 38.9375 -73.953125 L 40.265625 -73.953125 C 45.960938 -73.953125 50.382812 -75.335938 53.53125 -78.109375 C 56.6875 -80.878906 58.265625 -84.695312 58.265625 -89.5625 C 58.265625 -93.65625 57.046875 -96.921875 54.609375 -99.359375 C 52.179688 -101.796875 49.003906 -103.015625 45.078125 -103.015625 C 40.984375 -103.015625 37.550781 -101.628906 34.78125 -98.859375 C 32.007812 -96.097656 30.265625 -92.03125 29.546875 -86.65625 L 8.140625 -90.484375 C 9.628906 -97.835938 11.867188 -103.6875 14.859375 -108.03125 C 17.847656 -112.375 22.039062 -115.832031 27.4375 -118.40625 C 32.832031 -120.976562 38.929688 -122.265625 45.734375 -122.265625 C 56.359375 -122.265625 65.019531 -119.082031 71.71875 -112.71875 C 78.414062 -106.351562 81.765625 -99.109375 81.765625 -90.984375 C 81.765625 -80.296875 75.925781 -71.769531 64.25 -65.40625 C 71.164062 -63.96875 76.722656 -60.632812 80.921875 -55.40625 C 85.128906 -50.175781 87.234375 -43.882812 87.234375 -36.53125 C 87.234375 -25.90625 83.316406 -16.8125 75.484375 -9.25 C 67.660156 -1.695312 57.96875 2.078125 46.40625 2.078125 C 35.394531 2.078125 26.265625 -1.101562 19.015625 -7.46875 C 11.765625 -13.832031 7.582031 -22.109375 6.46875 -32.296875 Z M 6.46875 -32.296875 "/></g></g></g></svg>