<svg xmlns="http://www.w3.org/2000/svg" xmlns:xlink="http://www.w3.org/1999/xlink" width="500" zoomAndPan="magnify" viewBox="0 0 375 374.999991" height="500" preserveAspectRatio="xMidYMid meet" version="1.0"><defs><g/><clipPath id="7db914a237"><path d="M 17.25 0 L 357.75 0 C 362.324219 0 366.710938 1.816406 369.949219 5.050781 C 373.183594 8.289062 375 12.675781 375 17.25 L 375 357.75 C 375 362.324219 373.183594 366.710938 369.949219 369.949219 C 366.710938 373.183594 362.324219 375 357.75 375 L 17.25 375 C 12.675781 375 8.289062 373.183594 5.050781 369.949219 C 1.816406 366.710938 0 362.324219 0 357.75 L 0 17.25 C 0 12.675781 1.816406 8.289062 5.050781 5.050781 C 8.289062 1.816406 12.675781 0 17.25 0 Z M 17.25 0 " clip-rule="nonzero"/></clipPath></defs><g clip-path="url(#7db914a237)"><rect x="-37.5" width="450" fill="#000000" y="-37.499999" height="449.999989" fill-opacity="1"/></g><g fill="#ffffff" fill-opacity="1"><g transform="translate(149.23828, 244.499984)"><g><path d="M 35.25 1.5 C 29.851562 1.5 25.601562 0.0234375 22.5 -2.921875 C 19.394531 -5.867188 17.84375 -9.519531 17.84375 -13.875 C 17.84375 -18.226562 19.316406 -23.03125 22.265625 -28.28125 C 25.222656 -33.53125 31.648438 -41.90625 41.546875 -53.40625 L 66.296875 -82.046875 L 27.90625 -82.046875 C 20.800781 -82.046875 16.125 -81.171875 13.875 -79.421875 C 11.625 -77.671875 9.847656 -73.5 8.546875 -66.90625 L 6.15625 -66.90625 L 7.796875 -105 L 75 -105 L 75 -88.796875 L 58.34375 -59.703125 C 50.945312 -46.597656 46.222656 -37.21875 44.171875 -31.5625 C 42.117188 -25.914062 41.09375 -20.539062 41.09375 -15.4375 C 41.09375 -10.34375 42.59375 -5.644531 45.59375 -1.34375 L 44.546875 0.453125 C 41.742188 1.148438 38.644531 1.5 35.25 1.5 Z M 35.25 1.5 "/></g></g></g></svg>