<svg xmlns="http://www.w3.org/2000/svg" xmlns:xlink="http://www.w3.org/1999/xlink" width="500" zoomAndPan="magnify" viewBox="0 0 375 374.999991" height="500" preserveAspectRatio="xMidYMid meet" version="1.0"><defs><g/><clipPath id="692afc797f"><path d="M 187.5 0 C 83.945312 0 0 83.945312 0 187.5 C 0 291.054688 83.945312 375 187.5 375 C 291.054688 375 375 291.054688 375 187.5 C 375 83.945312 291.054688 0 187.5 0 Z M 187.5 0 " clip-rule="nonzero"/></clipPath></defs><g clip-path="url(#692afc797f)"><rect x="-37.5" width="450" fill="#000000" y="-37.499999" height="449.999989" fill-opacity="1"/></g><g fill="#ffffff" fill-opacity="1"><g transform="translate(140.226558, 254.999983)"><g><path d="M 7.140625 -98.453125 L 7.140625 -120.03125 L 87.078125 -120.03125 L 87.078125 -103.015625 C 80.492188 -96.535156 73.769531 -87.234375 66.90625 -75.109375 C 60.039062 -62.992188 54.847656 -50.144531 51.328125 -36.5625 C 47.816406 -22.976562 46.0625 -10.789062 46.0625 0 L 23.65625 0 C 23.988281 -16.769531 27.429688 -33.910156 33.984375 -51.421875 C 40.546875 -68.941406 49.28125 -84.617188 60.1875 -98.453125 Z M 7.140625 -98.453125 "/></g></g></g></svg>