<svg xmlns="http://www.w3.org/2000/svg" xmlns:xlink="http://www.w3.org/1999/xlink" width="500" zoomAndPan="magnify" viewBox="0 0 375 374.999991" height="500" preserveAspectRatio="xMidYMid meet" version="1.0"><defs><g/><clipPath id="cfd56c5490"><path d="M 17.25 0 L 357.75 0 C 362.324219 0 366.710938 1.816406 369.949219 5.050781 C 373.183594 8.289062 375 12.675781 375 17.25 L 375 357.75 C 375 362.324219 373.183594 366.710938 369.949219 369.949219 C 366.710938 373.183594 362.324219 375 357.75 375 L 17.25 375 C 12.675781 375 8.289062 373.183594 5.050781 369.949219 C 1.816406 366.710938 0 362.324219 0 357.75 L 0 17.25 C 0 12.675781 1.816406 8.289062 5.050781 5.050781 C 8.289062 1.816406 12.675781 0 17.25 0 Z M 17.25 0 " clip-rule="nonzero"/></clipPath></defs><g clip-path="url(#cfd56c5490)"><rect x="-37.5" width="450" fill="#000000" y="-37.499999" height="449.999989" fill-opacity="1"/></g><g fill="#ffffff" fill-opacity="1"><g transform="translate(146.98828, 244.499984)"><g><path d="M 46.203125 -35.09375 C 46.203125 -44.59375 45.375 -51.242188 43.71875 -55.046875 C 42.070312 -58.847656 38.347656 -60.75 32.546875 -60.75 C 26.742188 -60.75 20.394531 -58.597656 13.5 -54.296875 L 10.953125 -55.5 L 10.953125 -103.34375 L 13.34375 -105.15625 C 19.445312 -104.25 28.695312 -103.171875 41.09375 -101.921875 C 53.5 -100.671875 60.675781 -100.046875 62.625 -100.046875 C 64.570312 -100.046875 65.96875 -100.519531 66.8125 -101.46875 C 67.664062 -102.425781 68.394531 -104.050781 69 -106.34375 L 71.25 -106.046875 C 69.75 -90.742188 67.800781 -81.644531 65.40625 -78.75 C 64.101562 -77.25 62.453125 -76.5 60.453125 -76.5 C 58.453125 -76.5 54.25 -77.347656 47.84375 -79.046875 L 15.15625 -87.59375 L 14.40625 -58.5 C 21.695312 -62.394531 29.242188 -64.34375 37.046875 -64.34375 C 44.847656 -64.34375 51.347656 -63.46875 56.546875 -61.71875 C 61.742188 -59.96875 65.742188 -57.546875 68.546875 -54.453125 C 73.847656 -48.546875 76.5 -41.394531 76.5 -33 C 76.5 -22.300781 72.671875 -13.875 65.015625 -7.71875 C 57.367188 -1.570312 46.847656 1.5 33.453125 1.5 C 26.253906 1.5 19.601562 0 13.5 -3 C 10.195312 -4.695312 7.519531 -7.117188 5.46875 -10.265625 C 3.425781 -13.421875 2.40625 -17.070312 2.40625 -21.21875 C 2.40625 -25.375 3.578125 -28.800781 5.921875 -31.5 C 8.273438 -34.195312 11.523438 -35.546875 15.671875 -35.546875 C 19.828125 -35.546875 23.078125 -34.519531 25.421875 -32.46875 C 27.773438 -30.425781 28.953125 -27.78125 28.953125 -24.53125 C 28.953125 -21.28125 28.5 -18.503906 27.59375 -16.203125 L 22.65625 -16.203125 C 22.050781 -14.597656 21.75 -12.71875 21.75 -10.5625 C 21.75 -8.414062 22.597656 -6.367188 24.296875 -4.421875 C 25.992188 -2.472656 28.492188 -1.5 31.796875 -1.5 C 35.097656 -1.5 37.597656 -2.023438 39.296875 -3.078125 C 40.992188 -4.128906 42.289062 -5.40625 43.1875 -6.90625 C 44.09375 -8.40625 44.796875 -10.753906 45.296875 -13.953125 C 45.898438 -18.546875 46.203125 -25.59375 46.203125 -35.09375 Z M 46.203125 -35.09375 "/></g></g></g></svg>