<svg xmlns="http://www.w3.org/2000/svg" xmlns:xlink="http://www.w3.org/1999/xlink" width="500" zoomAndPan="magnify" viewBox="0 0 375 374.999991" height="500" preserveAspectRatio="xMidYMid meet" version="1.0"><defs><g/><clipPath id="1c93e37336"><path d="M 187.5 0 C 83.945312 0 0 83.945312 0 187.5 C 0 291.054688 83.945312 375 187.5 375 C 291.054688 375 375 291.054688 375 187.5 C 375 83.945312 291.054688 0 187.5 0 Z M 187.5 0 " clip-rule="nonzero"/></clipPath></defs><g clip-path="url(#1c93e37336)"><rect x="-37.5" width="450" fill="#f5f5f5" y="-37.499999" height="449.999989" fill-opacity="1"/></g><g fill="#000000" fill-opacity="1"><g transform="translate(92.953123, 254.999983)"><g><path d="M 86 -21.578125 L 86 0 L 4.234375 0 C 5.171875 -8.132812 7.835938 -15.894531 12.234375 -23.28125 C 16.640625 -30.664062 25.375 -40.421875 38.4375 -52.546875 C 49.945312 -63.222656 56.847656 -70.582031 59.140625 -74.625 C 61.441406 -78.664062 62.59375 -82.675781 62.59375 -86.65625 C 62.59375 -91.914062 61.191406 -95.925781 58.390625 -98.6875 C 55.597656 -101.457031 51.710938 -102.84375 46.734375 -102.84375 C 41.859375 -102.84375 38.007812 -101.375 35.1875 -98.4375 C 32.375 -95.507812 30.742188 -90.644531 30.296875 -83.84375 L 6.96875 -86.15625 C 8.351562 -99 12.695312 -108.226562 20 -113.84375 C 27.3125 -119.457031 36.441406 -122.265625 47.390625 -122.265625 C 59.398438 -122.265625 68.835938 -119 75.703125 -112.46875 C 82.566406 -105.945312 86 -97.925781 86 -88.40625 C 86 -82.875 85.015625 -77.628906 83.046875 -72.671875 C 81.085938 -67.722656 78.003906 -62.535156 73.796875 -57.109375 C 70.972656 -53.515625 65.863281 -48.335938 58.46875 -41.578125 C 51.082031 -34.828125 46.40625 -30.34375 44.4375 -28.125 C 42.476562 -25.914062 40.863281 -23.734375 39.59375 -21.578125 Z M 86 -21.578125 "/></g></g></g><g fill="#000000" fill-opacity="1"><g transform="translate(187.494671, 254.999983)"><g><path d="M 7.46875 -31.296875 L 30.796875 -33.703125 C 31.460938 -28.441406 33.441406 -24.289062 36.734375 -21.25 C 40.023438 -18.207031 43.773438 -16.6875 47.984375 -16.6875 C 52.847656 -16.6875 56.96875 -18.632812 60.34375 -22.53125 C 63.71875 -26.4375 65.40625 -32.398438 65.40625 -40.421875 C 65.40625 -47.953125 63.742188 -53.582031 60.421875 -57.3125 C 57.109375 -61.050781 52.710938 -62.921875 47.234375 -62.921875 C 40.585938 -62.921875 34.582031 -59.90625 29.21875 -53.875 L 10.375 -56.609375 L 22.25 -120.03125 L 84 -120.03125 L 84 -98.28125 L 39.921875 -98.28125 L 36.359375 -77.53125 C 41.554688 -80.132812 46.894531 -81.4375 52.375 -81.4375 C 62.664062 -81.4375 71.410156 -77.671875 78.609375 -70.140625 C 85.804688 -62.617188 89.40625 -52.851562 89.40625 -40.84375 C 89.40625 -29.113281 85.570312 -19.023438 77.90625 -10.578125 C 70.238281 -2.140625 60.179688 2.078125 47.734375 2.078125 C 36.554688 2.078125 27.425781 -0.9375 20.34375 -6.96875 C 13.257812 -13 8.96875 -21.109375 7.46875 -31.296875 Z M 7.46875 -31.296875 "/></g></g></g></svg>