<svg xmlns="http://www.w3.org/2000/svg" xmlns:xlink="http://www.w3.org/1999/xlink" width="500" zoomAndPan="magnify" viewBox="0 0 375 374.999991" height="500" preserveAspectRatio="xMidYMid meet" version="1.0"><defs><clipPath id="e791008f70"><path d="M 86.277344 60.613281 L 288.59375 60.613281 L 288.59375 250.941406 L 86.277344 250.941406 Z M 86.277344 60.613281 " clip-rule="nonzero"/></clipPath></defs><path fill="#ffcc00" d="M 154.160156 314.386719 C 140.550781 314.386719 132.9375 311.839844 130.546875 306.703125 C 129.398438 304 129.554688 300.9375 130.976562 298.390625 C 94.34375 271.738281 110.292969 220.484375 112.300781 214.421875 C 112.816406 212.777344 114.394531 211.675781 116.128906 211.742188 C 117.164062 211.742188 118.132812 212.148438 118.855469 212.867188 C 119.574219 213.589844 119.980469 214.582031 119.980469 215.59375 C 119.957031 216.042969 119.867188 216.496094 119.757812 216.921875 C 117.863281 222.421875 102.632812 271.289062 138.546875 293.816406 C 139.535156 294.449219 140.191406 295.460938 140.324219 296.609375 C 140.460938 297.78125 140.054688 298.953125 139.246094 299.789062 C 138.433594 300.621094 137.351562 302.46875 137.710938 303.210938 C 138.050781 303.933594 139.964844 307.539062 161.839844 306.277344 C 162.808594 305.78125 164.996094 304.382812 165.199219 302.421875 C 165.199219 301.183594 164.726562 296.65625 152.964844 288.859375 C 151.929688 288.183594 151.296875 287.058594 151.230469 285.820312 C 151.230469 285.414062 149.089844 241.527344 138.972656 212.800781 L 138.972656 212.777344 C 138.636719 211.832031 138.703125 210.75 139.175781 209.828125 C 139.628906 208.925781 140.414062 208.226562 141.382812 207.890625 C 143.390625 207.214844 145.574219 208.273438 146.273438 210.300781 C 155.644531 237.199219 158.304688 274.710938 158.84375 283.746094 C 168.914062 290.707031 173.488281 297.152344 172.835938 303.4375 C 172.023438 308.144531 168.78125 312.109375 164.296875 313.84375 C 163.914062 313.980469 163.507812 314.070312 163.101562 314.117188 C 159.769531 314.386719 156.773438 314.386719 154.160156 314.386719 " fill-opacity="1" fill-rule="nonzero"/><g clip-path="url(#e791008f70)"><path fill="#ffcc00" d="M 191.558594 236.613281 C 192.054688 237.851562 192.796875 238.980469 193.789062 239.882812 C 195.816406 241.480469 198.363281 242.3125 200.929688 242.222656 C 203.519531 242.132812 206 241.144531 207.9375 239.429688 L 205.863281 236.839844 C 205.457031 236.34375 205.1875 235.714844 205.097656 235.082031 C 200.546875 207.597656 214.964844 202.414062 215.574219 202.210938 C 216.609375 201.851562 217.738281 201.964844 218.707031 202.480469 C 233.644531 210.863281 268.25 212.753906 272.101562 212.914062 C 275.097656 212.734375 277.824219 211.132812 279.46875 208.632812 C 283.320312 202.054688 279.46875 189.414062 277.554688 185.023438 C 266.828125 160.621094 229.070312 117.410156 228.6875 116.984375 C 228.054688 116.261719 227.71875 115.335938 227.738281 114.367188 C 228.03125 98.035156 223.886719 85.777344 215.664062 77.9375 C 208.140625 71.40625 198.429688 67.980469 188.492188 68.363281 L 186.871094 68.363281 C 176.800781 67.957031 166.933594 71.382812 159.316406 77.984375 C 151.050781 85.667969 147.015625 98.035156 147.308594 114.347656 C 147.332031 115.292969 146.996094 116.238281 146.339844 116.960938 C 145.957031 117.386719 108.222656 160.398438 97.65625 185 C 95.851562 189.300781 91.933594 202.03125 95.761719 208.585938 C 97.339844 211.089844 100.019531 212.6875 102.949219 212.914062 C 106.800781 212.710938 141.382812 210.863281 156.1875 202.480469 C 157.15625 201.964844 158.28125 201.851562 159.316406 202.210938 C 159.925781 202.210938 174.34375 207.597656 169.792969 235.082031 C 169.679688 235.714844 169.433594 236.34375 169.027344 236.839844 L 167 239.386719 C 168.914062 241.121094 171.371094 242.113281 173.960938 242.203125 C 176.53125 242.292969 179.078125 241.480469 181.105469 239.882812 C 182.074219 238.980469 182.839844 237.851562 183.335938 236.613281 C 182.972656 234.878906 182.839844 233.101562 182.90625 231.320312 L 183.515625 219.402344 L 182.90625 207.101562 C 181.914062 190.5625 165.199219 186.035156 151.34375 185.179688 C 143.636719 184.683594 136.023438 183.128906 128.746094 180.539062 C 124.464844 179.007812 120.09375 177.8125 115.632812 176.910156 C 113.515625 176.550781 112.097656 174.523438 112.480469 172.40625 C 112.839844 170.289062 114.867188 168.867188 116.984375 169.226562 C 121.851562 170.128906 126.648438 171.4375 131.335938 173.082031 C 137.914062 175.46875 144.808594 176.886719 151.816406 177.292969 C 169.679688 178.421875 181.914062 184.503906 187.367188 194.6875 C 192.820312 184.503906 205.054688 178.421875 222.917969 177.292969 C 229.925781 176.886719 236.820312 175.46875 243.421875 173.082031 C 248.085938 171.4375 252.882812 170.128906 257.75 169.226562 C 259.867188 168.84375 261.917969 170.265625 262.300781 172.382812 C 262.683594 174.5 261.265625 176.527344 259.144531 176.910156 C 254.683594 177.789062 250.292969 178.984375 245.988281 180.492188 C 238.710938 183.105469 231.097656 184.707031 223.390625 185.179688 C 209.558594 186.035156 192.820312 190.5625 191.828125 207.101562 L 191.378906 219.402344 L 191.984375 231.320312 C 192.054688 233.101562 191.917969 234.878906 191.558594 236.613281 Z M 175.246094 250.042969 C 169.117188 249.679688 163.351562 247.066406 159.023438 242.699219 C 157.605469 241.300781 157.492188 239.023438 158.777344 237.492188 L 162.605469 232.761719 C 164.882812 217.667969 160.375 211.96875 158.191406 210.164062 C 140.121094 219.019531 104.683594 220.550781 102.949219 220.574219 L 102.339844 220.574219 C 96.796875 220.234375 91.796875 217.214844 88.914062 212.484375 C 82.539062 201.445312 89.613281 183.960938 90.421875 182.023438 C 100.605469 158.277344 133.25 120.136719 139.46875 112.835938 C 139.535156 95.265625 144.425781 81.476562 154.113281 72.214844 C 163.214844 64.195312 175.089844 60.050781 187.210938 60.679688 L 188.179688 60.679688 C 200.164062 60.140625 211.902344 64.285156 220.914062 72.214844 C 230.644531 81.316406 235.492188 95.015625 235.421875 112.882812 C 241.640625 119.980469 274.285156 158.121094 284.46875 181.84375 C 285.28125 183.804688 292.355469 201.0625 285.957031 212.328125 C 283.09375 217.058594 278.070312 220.101562 272.550781 220.4375 L 272.078125 220.4375 C 270.5 220.4375 235.0625 218.859375 217.082031 210.097656 C 214.875 211.898438 210.390625 217.78125 212.667969 232.695312 L 216.496094 237.425781 C 217.714844 238.957031 217.601562 241.144531 216.226562 242.539062 C 211.269531 247.542969 199.171875 254.570312 188.898438 245.445312 C 188.492188 245.109375 188.109375 244.726562 187.75 244.296875 L 186.601562 245.445312 C 183.539062 248.375 179.480469 250.019531 175.246094 250.042969 " fill-opacity="1" fill-rule="nonzero"/></g><path fill="#ffcc00" d="M 220.890625 314.386719 C 218.1875 314.386719 215.28125 314.386719 212.128906 314.117188 C 211.722656 314.070312 211.316406 313.980469 210.933594 313.84375 C 206.449219 312.132812 203.183594 308.167969 202.347656 303.4375 C 201.742188 297.152344 206.203125 290.707031 216.429688 283.746094 C 216.925781 274.710938 219.628906 237.066406 228.957031 210.277344 C 229.65625 208.273438 231.863281 207.214844 233.867188 207.910156 C 235.875 208.609375 236.933594 210.816406 236.234375 212.824219 C 226.117188 241.730469 224 285.59375 224 285.863281 C 223.933594 287.101562 223.300781 288.207031 222.265625 288.90625 C 210.4375 296.589844 209.898438 301.273438 210.007812 302.492188 C 210.007812 304.429688 212.398438 305.800781 213.320312 306.34375 C 235.21875 307.605469 237.40625 303.4375 237.496094 303.234375 C 237.5625 303.03125 236.640625 300.574219 235.917969 299.855469 C 235.105469 299.019531 234.703125 297.871094 234.835938 296.699219 C 234.972656 295.550781 235.625 294.515625 236.617188 293.90625 C 272.484375 271.332031 257.367188 222.625 255.453125 217.011719 C 255.292969 216.5625 255.226562 216.089844 255.203125 215.640625 C 255.269531 213.769531 256.621094 212.238281 258.449219 211.945312 C 260.273438 211.652344 262.050781 212.6875 262.660156 214.421875 C 264.667969 220.371094 280.617188 271.625 243.960938 298.164062 C 245.492188 300.757812 245.695312 303.933594 244.480469 306.703125 C 242.070312 311.839844 234.5 314.386719 220.890625 314.386719 " fill-opacity="1" fill-rule="nonzero"/><path fill="#ffcc00" d="M 206.515625 308.347656 C 205.457031 308.347656 204.46875 307.921875 203.746094 307.15625 C 199.714844 303.277344 194.261719 301.25 188.675781 301.589844 L 186.351562 301.589844 L 186.375 301.589844 C 180.765625 301.25 175.292969 303.277344 171.257812 307.15625 C 170.582031 307.964844 169.570312 308.484375 168.511719 308.527344 C 167.449219 308.574219 166.390625 308.191406 165.625 307.445312 C 164.859375 306.703125 164.433594 305.667969 164.453125 304.609375 C 164.5 303.527344 164.972656 302.535156 165.761719 301.816406 C 171.4375 296.273438 179.234375 293.480469 187.140625 294.132812 L 187.90625 294.132812 C 195.792969 293.480469 203.609375 296.273438 209.265625 301.816406 C 210.371094 302.917969 210.683594 304.585938 210.078125 306.003906 C 209.46875 307.425781 208.050781 308.371094 206.515625 308.347656 " fill-opacity="1" fill-rule="nonzero"/><path fill="#ffcc00" d="M 180.722656 89.269531 C 175.675781 89.269531 168.960938 90.148438 165.332031 94.339844 C 162.699219 98.035156 161.796875 102.699219 162.878906 107.113281 C 163.375 110 164.703125 112.679688 166.730469 114.796875 L 171.867188 120.453125 C 172.835938 121.488281 173.128906 122.953125 172.679688 124.28125 C 172.679688 124.28125 168.847656 136.71875 173.871094 143.703125 C 177.183594 147.441406 182.09375 149.335938 187.050781 148.773438 L 188.335938 148.773438 C 193.269531 149.3125 198.179688 147.417969 201.472656 143.703125 C 206.539062 136.71875 202.710938 124.484375 202.664062 124.28125 C 202.214844 122.953125 202.53125 121.488281 203.476562 120.453125 L 208.65625 114.796875 C 210.503906 112.882812 211.746094 110.492188 212.238281 107.878906 C 213.546875 103.195312 212.667969 98.171875 209.808594 94.226562 C 205.546875 89.382812 197.121094 89.046875 192.4375 89.269531 Z M 188.179688 156.476562 L 186.917969 156.476562 C 177.996094 156.476562 171.527344 153.660156 167.496094 148.207031 C 161.636719 140.164062 163.464844 128.992188 164.613281 124.148438 L 160.761719 120.023438 C 157.761719 116.734375 155.78125 112.632812 155.105469 108.21875 C 153.640625 101.617188 155.21875 94.679688 159.386719 89.339844 C 165.332031 82.398438 175.539062 81.363281 182.140625 81.65625 L 191.828125 81.65625 C 199.21875 81.316406 209.242188 82.355469 215.304688 89.339844 C 219.765625 94.992188 221.339844 102.40625 219.539062 109.390625 C 218.773438 113.421875 216.882812 117.164062 214.085938 120.183594 L 210.234375 124.28125 C 211.359375 129.058594 213.164062 140.367188 207.351562 148.367188 C 203.589844 153.707031 197.054688 156.476562 188.179688 156.476562 " fill-opacity="1" fill-rule="nonzero"/><path fill="#ffcc00" d="M 174.457031 107.542969 C 172.316406 107.542969 170.605469 105.808594 170.605469 103.691406 L 170.605469 101.773438 C 170.605469 99.632812 172.316406 97.921875 174.457031 97.921875 C 176.574219 97.921875 178.289062 99.632812 178.289062 101.773438 L 178.289062 103.691406 C 178.289062 104.703125 177.882812 105.695312 177.160156 106.417969 C 176.441406 107.136719 175.472656 107.542969 174.457031 107.542969 " fill-opacity="1" fill-rule="nonzero"/><path fill="#ffcc00" d="M 200.636719 107.542969 C 198.496094 107.542969 196.785156 105.808594 196.785156 103.691406 L 196.785156 101.773438 C 196.785156 99.632812 198.496094 97.921875 200.636719 97.921875 C 202.753906 97.921875 204.46875 99.632812 204.46875 101.773438 L 204.46875 103.691406 C 204.46875 104.703125 204.0625 105.695312 203.339844 106.417969 C 202.621094 107.136719 201.652344 107.542969 200.636719 107.542969 " fill-opacity="1" fill-rule="nonzero"/><path fill="#ffcc00" d="M 187.523438 139.78125 C 184.800781 139.78125 182.140625 139.015625 179.84375 137.550781 C 178.601562 136.3125 178.378906 134.375 179.277344 132.867188 C 180.179688 131.378906 181.984375 130.65625 183.671875 131.175781 C 185.96875 132.4375 188.765625 132.4375 191.0625 131.175781 C 191.894531 130.433594 193 130.117188 194.105469 130.273438 C 195.207031 130.410156 196.199219 131.039062 196.808594 131.964844 C 197.414062 132.910156 197.574219 134.058594 197.28125 135.117188 C 196.964844 136.199219 196.222656 137.078125 195.207031 137.550781 C 192.910156 139.015625 190.25 139.78125 187.523438 139.78125 " fill-opacity="1" fill-rule="nonzero"/><path fill="#ffcc00" d="M 187.523438 125.09375 C 185.40625 125.09375 183.671875 123.382812 183.671875 121.261719 L 183.671875 115.652344 C 183.671875 113.511719 185.40625 111.800781 187.523438 111.800781 C 189.644531 111.800781 191.355469 113.511719 191.355469 115.652344 L 191.355469 121.261719 C 191.355469 122.277344 190.949219 123.246094 190.25 123.964844 C 189.53125 124.6875 188.539062 125.09375 187.523438 125.09375 " fill-opacity="1" fill-rule="nonzero"/></svg>