<svg xmlns="http://www.w3.org/2000/svg" xmlns:xlink="http://www.w3.org/1999/xlink" width="500" zoomAndPan="magnify" viewBox="0 0 375 374.999991" height="500" preserveAspectRatio="xMidYMid meet" version="1.0"><defs><g/><clipPath id="da8b82ffa3"><path d="M 17.25 0 L 357.75 0 C 362.324219 0 366.710938 1.816406 369.949219 5.050781 C 373.183594 8.289062 375 12.675781 375 17.25 L 375 357.75 C 375 362.324219 373.183594 366.710938 369.949219 369.949219 C 366.710938 373.183594 362.324219 375 357.75 375 L 17.25 375 C 12.675781 375 8.289062 373.183594 5.050781 369.949219 C 1.816406 366.710938 0 362.324219 0 357.75 L 0 17.25 C 0 12.675781 1.816406 8.289062 5.050781 5.050781 C 8.289062 1.816406 12.675781 0 17.25 0 Z M 17.25 0 " clip-rule="nonzero"/></clipPath></defs><g clip-path="url(#da8b82ffa3)"><rect x="-37.5" width="450" fill="#000000" y="-37.499999" height="449.999989" fill-opacity="1"/></g><g fill="#ffffff" fill-opacity="1"><g transform="translate(141.292968, 244.499984)"><g><path d="M 87.59375 -58.953125 C 87.59375 -39.546875 83.367188 -24.617188 74.921875 -14.171875 C 66.472656 -3.722656 54.75 1.5 39.75 1.5 C 29.25 1.5 21.023438 -0.5 15.078125 -4.5 C 9.128906 -8.5 6.15625 -13.695312 6.15625 -20.09375 C 6.15625 -24.09375 7.378906 -27.566406 9.828125 -30.515625 C 12.273438 -33.472656 15.523438 -34.953125 19.578125 -34.953125 C 23.628906 -34.953125 26.828125 -33.875 29.171875 -31.71875 C 31.523438 -29.570312 32.703125 -27.023438 32.703125 -24.078125 C 32.703125 -21.128906 32.300781 -18.550781 31.5 -16.34375 L 27 -16.34375 C 26.300781 -14.84375 25.953125 -12.914062 25.953125 -10.5625 C 25.953125 -8.21875 27.023438 -6.117188 29.171875 -4.265625 C 31.328125 -2.421875 34.503906 -1.5 38.703125 -1.5 C 45.398438 -1.5 50.273438 -5.148438 53.328125 -12.453125 C 56.378906 -19.753906 57.953125 -32.453125 58.046875 -50.546875 C 52.847656 -42.453125 44.945312 -38.40625 34.34375 -38.40625 C 25.34375 -38.40625 17.941406 -41.300781 12.140625 -47.09375 C 6.347656 -52.894531 3.453125 -60.847656 3.453125 -70.953125 C 3.453125 -82.953125 7.425781 -91.898438 15.375 -97.796875 C 23.320312 -103.703125 33.5 -106.65625 45.90625 -106.65625 C 73.695312 -106.65625 87.59375 -90.753906 87.59375 -58.953125 Z M 43.046875 -43.34375 C 46.453125 -43.34375 49.328125 -44.617188 51.671875 -47.171875 C 54.023438 -49.722656 55.625 -52.722656 56.46875 -56.171875 C 57.320312 -59.617188 57.75 -64.117188 57.75 -69.671875 C 57.75 -75.222656 57.722656 -79.070312 57.671875 -81.21875 C 57.617188 -83.375 57.492188 -85.925781 57.296875 -88.875 C 57.097656 -91.820312 56.75 -93.96875 56.25 -95.3125 C 55.75 -96.664062 55.097656 -98.09375 54.296875 -99.59375 C 52.796875 -102.195312 50.046875 -103.5 46.046875 -103.5 C 41.546875 -103.5 38.195312 -101.695312 36 -98.09375 C 34.300781 -95.195312 33.300781 -90.195312 33 -83.09375 C 32.894531 -80.59375 32.84375 -77.21875 32.84375 -72.96875 C 32.84375 -68.71875 32.867188 -65.441406 32.921875 -63.140625 C 32.972656 -60.847656 33.097656 -58.425781 33.296875 -55.875 C 33.492188 -53.320312 33.816406 -51.394531 34.265625 -50.09375 C 34.722656 -48.800781 35.300781 -47.550781 36 -46.34375 C 37.300781 -44.34375 39.648438 -43.34375 43.046875 -43.34375 Z M 43.046875 -43.34375 "/></g></g></g></svg>