<svg xmlns="http://www.w3.org/2000/svg" xmlns:xlink="http://www.w3.org/1999/xlink" width="500" zoomAndPan="magnify" viewBox="0 0 375 374.999991" height="500" preserveAspectRatio="xMidYMid meet" version="1.0"><defs><g/><clipPath id="81ef8ef5a3"><path d="M 17.25 0 L 357.75 0 C 362.324219 0 366.710938 1.816406 369.949219 5.050781 C 373.183594 8.289062 375 12.675781 375 17.25 L 375 357.75 C 375 362.324219 373.183594 366.710938 369.949219 369.949219 C 366.710938 373.183594 362.324219 375 357.75 375 L 17.25 375 C 12.675781 375 8.289062 373.183594 5.050781 369.949219 C 1.816406 366.710938 0 362.324219 0 357.75 L 0 17.25 C 0 12.675781 1.816406 8.289062 5.050781 5.050781 C 8.289062 1.816406 12.675781 0 17.25 0 Z M 17.25 0 " clip-rule="nonzero"/></clipPath></defs><g clip-path="url(#81ef8ef5a3)"><rect x="-37.5" width="450" fill="#000000" y="-37.499999" height="449.999989" fill-opacity="1"/></g><g fill="#ffffff" fill-opacity="1"><g transform="translate(144.51562, 244.499984)"><g><path d="M 6.296875 -83.703125 C 6.296875 -90.296875 9.296875 -95.769531 15.296875 -100.125 C 21.296875 -104.476562 30.195312 -106.65625 42 -106.65625 C 64.800781 -106.65625 76.203125 -98.703125 76.203125 -82.796875 C 76.203125 -76.296875 73.523438 -70.921875 68.171875 -66.671875 C 62.828125 -62.421875 55.15625 -59.445312 45.15625 -57.75 L 45.15625 -57.453125 C 57.550781 -56.546875 66.695312 -53.644531 72.59375 -48.75 C 78.5 -43.851562 81.453125 -37.503906 81.453125 -29.703125 C 81.453125 -20.097656 77.578125 -12.492188 69.828125 -6.890625 C 62.078125 -1.296875 51.300781 1.5 37.5 1.5 C 32.101562 1.5 27.078125 0.898438 22.421875 -0.296875 C 17.773438 -1.492188 13.625 -3.867188 9.96875 -7.421875 C 6.320312 -10.972656 4.5 -15.195312 4.5 -20.09375 C 4.5 -25 5.671875 -28.800781 8.015625 -31.5 C 10.367188 -34.195312 13.59375 -35.546875 17.6875 -35.546875 C 21.789062 -35.546875 25.039062 -34.46875 27.4375 -32.3125 C 29.84375 -30.164062 31.046875 -27.617188 31.046875 -24.671875 C 31.046875 -21.722656 30.644531 -19.195312 29.84375 -17.09375 L 25.203125 -17.09375 C 24.597656 -15.5 24.296875 -13.851562 24.296875 -12.15625 C 24.296875 -5.050781 28.5 -1.5 36.90625 -1.5 C 42.800781 -1.5 46.820312 -3.75 48.96875 -8.25 C 51.125 -12.75 52.203125 -19.25 52.203125 -27.75 C 52.203125 -36.25 51.175781 -42.421875 49.125 -46.265625 C 47.070312 -50.117188 44.046875 -53.046875 40.046875 -55.046875 C 36.453125 -54.242188 32.101562 -53.59375 27 -53.09375 L 26.546875 -56.40625 C 35.347656 -57.300781 41.125 -59.398438 43.875 -62.703125 C 46.625 -66.003906 48 -71.878906 48 -80.328125 C 48 -88.773438 47.171875 -94.820312 45.515625 -98.46875 C 43.867188 -102.125 41.09375 -103.953125 37.1875 -103.953125 C 33.289062 -103.953125 30.519531 -102.773438 28.875 -100.421875 C 27.226562 -98.078125 26.40625 -95.851562 26.40625 -93.75 C 26.40625 -91.644531 26.703125 -89.796875 27.296875 -88.203125 L 31.65625 -88.203125 C 32.445312 -86.097656 32.84375 -83.570312 32.84375 -80.625 C 32.84375 -77.675781 31.59375 -75.125 29.09375 -72.96875 C 26.59375 -70.820312 23.289062 -69.75 19.1875 -69.75 C 15.09375 -69.75 11.921875 -71.070312 9.671875 -73.71875 C 7.421875 -76.375 6.296875 -79.703125 6.296875 -83.703125 Z M 6.296875 -83.703125 "/></g></g></g></svg>