<svg xmlns="http://www.w3.org/2000/svg" xmlns:xlink="http://www.w3.org/1999/xlink" width="500" zoomAndPan="magnify" viewBox="0 0 375 374.999991" height="500" preserveAspectRatio="xMidYMid meet" version="1.0"><defs><g/><clipPath id="fee0549088"><path d="M 187.5 0 C 83.945312 0 0 83.945312 0 187.5 C 0 291.054688 83.945312 375 187.5 375 C 291.054688 375 375 291.054688 375 187.5 C 375 83.945312 291.054688 0 187.5 0 Z M 187.5 0 " clip-rule="nonzero"/></clipPath></defs><g clip-path="url(#fee0549088)"><rect x="-37.5" width="450" fill="#f5f5f5" y="-37.499999" height="449.999989" fill-opacity="1"/></g><g fill="#000000" fill-opacity="1"><g transform="translate(92.953123, 254.999983)"><g><path d="M 66.984375 0 L 43.5 0 L 43.5 -87.90625 C 35.03125 -79.9375 25.015625 -74.039062 13.453125 -70.21875 L 13.453125 -91.46875 C 19.535156 -93.40625 26.144531 -97.140625 33.28125 -102.671875 C 40.425781 -108.210938 45.328125 -114.742188 47.984375 -122.265625 L 66.984375 -122.265625 Z M 66.984375 0 "/></g></g></g><g fill="#000000" fill-opacity="1"><g transform="translate(187.494671, 254.999983)"><g><path d="M 46.5625 -122.265625 C 72.957031 -122.265625 86.15625 -101.515625 86.15625 -60.015625 C 86.15625 -39.097656 82.875 -23.519531 76.3125 -13.28125 C 69.757812 -3.039062 59.84375 2.078125 46.5625 2.078125 C 34.78125 2.078125 25.265625 -2.457031 18.015625 -11.53125 C 10.765625 -20.613281 7.140625 -36.832031 7.140625 -60.1875 C 7.140625 -81.101562 10.414062 -96.675781 16.96875 -106.90625 C 23.53125 -117.144531 33.394531 -122.265625 46.5625 -122.265625 Z M 46.5625 -102.84375 C 40.863281 -102.84375 36.945312 -99.660156 34.8125 -93.296875 C 32.6875 -86.929688 31.625 -75.835938 31.625 -60.015625 C 31.625 -45.734375 32.328125 -35.921875 33.734375 -30.578125 C 35.148438 -25.242188 36.960938 -21.703125 39.171875 -19.953125 C 41.390625 -18.210938 43.851562 -17.34375 46.5625 -17.34375 C 52.039062 -17.34375 55.925781 -20.273438 58.21875 -26.140625 C 60.519531 -32.015625 61.671875 -43.304688 61.671875 -60.015625 C 61.671875 -74.296875 60.960938 -84.101562 59.546875 -89.4375 C 58.140625 -94.78125 56.328125 -98.347656 54.109375 -100.140625 C 51.898438 -101.941406 49.382812 -102.84375 46.5625 -102.84375 Z M 46.5625 -102.84375 "/></g></g></g></svg>