<svg xmlns="http://www.w3.org/2000/svg" xmlns:xlink="http://www.w3.org/1999/xlink" width="500" zoomAndPan="magnify" viewBox="0 0 375 374.999991" height="500" preserveAspectRatio="xMidYMid meet" version="1.0"><defs><g/><clipPath id="4efee37f32"><path d="M 17.25 0 L 357.75 0 C 362.324219 0 366.710938 1.816406 369.949219 5.050781 C 373.183594 8.289062 375 12.675781 375 17.25 L 375 357.75 C 375 362.324219 373.183594 366.710938 369.949219 369.949219 C 366.710938 373.183594 362.324219 375 357.75 375 L 17.25 375 C 12.675781 375 8.289062 373.183594 5.050781 369.949219 C 1.816406 366.710938 0 362.324219 0 357.75 L 0 17.25 C 0 12.675781 1.816406 8.289062 5.050781 5.050781 C 8.289062 1.816406 12.675781 0 17.25 0 Z M 17.25 0 " clip-rule="nonzero"/></clipPath></defs><g clip-path="url(#4efee37f32)"><rect x="-37.5" width="450" fill="#000000" y="-37.499999" height="449.999989" fill-opacity="1"/></g><g fill="#ffffff" fill-opacity="1"><g transform="translate(105.82031, 244.499984)"><g><path d="M 19.046875 -101.09375 L 2.546875 -99 L 2.25 -102 L 36.15625 -106.65625 L 48.296875 -106.65625 L 48.296875 -2.84375 L 60 -2.84375 L 60 0 L 3.296875 0 L 3.296875 -2.84375 L 19.046875 -2.84375 Z M 19.046875 -101.09375 "/></g></g></g><g fill="#ffffff" fill-opacity="1"><g transform="translate(169.570317, 244.499984)"><g><path d="M 48.96875 1.5 C 34.425781 1.5 23.378906 -3.398438 15.828125 -13.203125 C 8.273438 -23.003906 4.5 -36.703125 4.5 -54.296875 C 4.5 -71.898438 8.546875 -85.023438 16.640625 -93.671875 C 24.742188 -102.328125 35.820312 -106.65625 49.875 -106.65625 C 63.925781 -106.65625 74.972656 -102.351562 83.015625 -93.75 C 91.066406 -85.144531 95.09375 -71.441406 95.09375 -52.640625 C 95.09375 -33.847656 91.039062 -20.125 82.9375 -11.46875 C 74.84375 -2.820312 63.519531 1.5 48.96875 1.5 Z M 35.25 -58.203125 L 35.25 -44.84375 C 35.25 -35.144531 35.320312 -28.296875 35.46875 -24.296875 C 35.625 -20.296875 36.148438 -16.144531 37.046875 -11.84375 C 37.953125 -7.550781 39.40625 -4.78125 41.40625 -3.53125 C 43.40625 -2.28125 45.753906 -1.65625 48.453125 -1.65625 C 51.148438 -1.65625 53.171875 -1.800781 54.515625 -2.09375 C 55.867188 -2.394531 57.070312 -3.019531 58.125 -3.96875 C 59.175781 -4.925781 60.050781 -5.878906 60.75 -6.828125 C 61.445312 -7.773438 62.019531 -9.25 62.46875 -11.25 C 62.925781 -13.25 63.300781 -15.097656 63.59375 -16.796875 C 63.894531 -18.492188 64.097656 -20.992188 64.203125 -24.296875 C 64.398438 -30.703125 64.5 -37.15625 64.5 -43.65625 L 64.5 -56.84375 C 64.5 -76.445312 63.773438 -89.125 62.328125 -94.875 C 60.878906 -100.625 56.753906 -103.5 49.953125 -103.5 C 43.148438 -103.5 39 -100.546875 37.5 -94.640625 C 36 -88.742188 35.25 -76.597656 35.25 -58.203125 Z M 35.25 -58.203125 "/></g></g></g></svg>