<svg xmlns="http://www.w3.org/2000/svg" xmlns:xlink="http://www.w3.org/1999/xlink" width="500" zoomAndPan="magnify" viewBox="0 0 375 374.999991" height="500" preserveAspectRatio="xMidYMid meet" version="1.0"><defs><g/><clipPath id="ecc1835de9"><path d="M 187.5 0 C 83.945312 0 0 83.945312 0 187.5 C 0 291.054688 83.945312 375 187.5 375 C 291.054688 375 375 291.054688 375 187.5 C 375 83.945312 291.054688 0 187.5 0 Z M 187.5 0 " clip-rule="nonzero"/></clipPath></defs><g clip-path="url(#ecc1835de9)"><rect x="-37.5" width="450" fill="#000000" y="-37.499999" height="449.999989" fill-opacity="1"/></g><g fill="#ffffff" fill-opacity="1"><g transform="translate(92.953123, 254.999983)"><g><path d="M 86 -21.578125 L 86 0 L 4.234375 0 C 5.171875 -8.132812 7.835938 -15.894531 12.234375 -23.28125 C 16.640625 -30.664062 25.375 -40.421875 38.4375 -52.546875 C 49.945312 -63.222656 56.847656 -70.582031 59.140625 -74.625 C 61.441406 -78.664062 62.59375 -82.675781 62.59375 -86.65625 C 62.59375 -91.914062 61.191406 -95.925781 58.390625 -98.6875 C 55.597656 -101.457031 51.710938 -102.84375 46.734375 -102.84375 C 41.859375 -102.84375 38.007812 -101.375 35.1875 -98.4375 C 32.375 -95.507812 30.742188 -90.644531 30.296875 -83.84375 L 6.96875 -86.15625 C 8.351562 -99 12.695312 -108.226562 20 -113.84375 C 27.3125 -119.457031 36.441406 -122.265625 47.390625 -122.265625 C 59.398438 -122.265625 68.835938 -119 75.703125 -112.46875 C 82.566406 -105.945312 86 -97.925781 86 -88.40625 C 86 -82.875 85.015625 -77.628906 83.046875 -72.671875 C 81.085938 -67.722656 78.003906 -62.535156 73.796875 -57.109375 C 70.972656 -53.515625 65.863281 -48.335938 58.46875 -41.578125 C 51.082031 -34.828125 46.40625 -30.34375 44.4375 -28.125 C 42.476562 -25.914062 40.863281 -23.734375 39.59375 -21.578125 Z M 86 -21.578125 "/></g></g></g><g fill="#ffffff" fill-opacity="1"><g transform="translate(187.494671, 254.999983)"><g><path d="M 7.140625 -98.453125 L 7.140625 -120.03125 L 87.078125 -120.03125 L 87.078125 -103.015625 C 80.492188 -96.535156 73.769531 -87.234375 66.90625 -75.109375 C 60.039062 -62.992188 54.847656 -50.144531 51.328125 -36.5625 C 47.816406 -22.976562 46.0625 -10.789062 46.0625 0 L 23.65625 0 C 23.988281 -16.769531 27.429688 -33.910156 33.984375 -51.421875 C 40.546875 -68.941406 49.28125 -84.617188 60.1875 -98.453125 Z M 7.140625 -98.453125 "/></g></g></g></svg>