<svg xmlns="http://www.w3.org/2000/svg" xmlns:xlink="http://www.w3.org/1999/xlink" width="500" zoomAndPan="magnify" viewBox="0 0 375 374.999991" height="500" preserveAspectRatio="xMidYMid meet" version="1.0"><defs><g/><clipPath id="8df51cca31"><path d="M 187.5 0 C 83.945312 0 0 83.945312 0 187.5 C 0 291.054688 83.945312 375 187.5 375 C 291.054688 375 375 291.054688 375 187.5 C 375 83.945312 291.054688 0 187.5 0 Z M 187.5 0 " clip-rule="nonzero"/></clipPath></defs><g clip-path="url(#8df51cca31)"><rect x="-37.5" width="450" fill="#f5f5f5" y="-37.499999" height="449.999989" fill-opacity="1"/></g><g fill="#000000" fill-opacity="1"><g transform="translate(140.226558, 254.999983)"><g><path d="M 86.15625 -91.96875 L 63.75 -89.40625 C 62.644531 -98.476562 58.160156 -103.015625 50.296875 -103.015625 C 45.316406 -103.015625 41.125 -100.800781 37.71875 -96.375 C 34.320312 -91.945312 32.234375 -82.703125 31.453125 -68.640625 C 37.210938 -75.566406 44.410156 -79.03125 53.046875 -79.03125 C 62.785156 -79.03125 71.140625 -75.320312 78.109375 -67.90625 C 85.078125 -60.488281 88.5625 -50.882812 88.5625 -39.09375 C 88.5625 -26.757812 84.910156 -16.8125 77.609375 -9.25 C 70.304688 -1.695312 60.925781 2.078125 49.46875 2.078125 C 37.132812 2.078125 26.992188 -2.679688 19.046875 -12.203125 C 11.109375 -21.722656 7.140625 -37.382812 7.140625 -59.1875 C 7.140625 -81.488281 11.273438 -97.578125 19.546875 -107.453125 C 27.816406 -117.328125 38.539062 -122.265625 51.71875 -122.265625 C 61.007812 -122.265625 68.6875 -119.648438 74.75 -114.421875 C 80.8125 -109.191406 84.613281 -101.707031 86.15625 -91.96875 Z M 33.28125 -41 C 33.28125 -33.363281 35.035156 -27.507812 38.546875 -23.4375 C 42.066406 -19.375 46.039062 -17.34375 50.46875 -17.34375 C 54.78125 -17.34375 58.390625 -19.015625 61.296875 -22.359375 C 64.203125 -25.710938 65.65625 -31.238281 65.65625 -38.9375 C 65.65625 -46.84375 64.117188 -52.632812 61.046875 -56.3125 C 57.984375 -60 54.125 -61.84375 49.46875 -61.84375 C 44.9375 -61.84375 41.101562 -60.082031 37.96875 -56.5625 C 34.84375 -53.050781 33.28125 -47.863281 33.28125 -41 Z M 33.28125 -41 "/></g></g></g></svg>