<svg xmlns="http://www.w3.org/2000/svg" xmlns:xlink="http://www.w3.org/1999/xlink" width="500" zoomAndPan="magnify" viewBox="0 0 375 374.999991" height="500" preserveAspectRatio="xMidYMid meet" version="1.0"><defs><g/><clipPath id="cab929350d"><path d="M 17.25 0 L 357.75 0 C 362.324219 0 366.710938 1.816406 369.949219 5.050781 C 373.183594 8.289062 375 12.675781 375 17.25 L 375 357.75 C 375 362.324219 373.183594 366.710938 369.949219 369.949219 C 366.710938 373.183594 362.324219 375 357.75 375 L 17.25 375 C 12.675781 375 8.289062 373.183594 5.050781 369.949219 C 1.816406 366.710938 0 362.324219 0 357.75 L 0 17.25 C 0 12.675781 1.816406 8.289062 5.050781 5.050781 C 8.289062 1.816406 12.675781 0 17.25 0 Z M 17.25 0 " clip-rule="nonzero"/></clipPath></defs><g clip-path="url(#cab929350d)"><rect x="-37.5" width="450" fill="#000000" y="-37.499999" height="449.999989" fill-opacity="1"/></g><g fill="#ffffff" fill-opacity="1"><g transform="translate(141.292968, 244.499984)"><g><path d="M 5.09375 -46.203125 C 5.09375 -65.503906 9.414062 -80.40625 18.0625 -90.90625 C 26.71875 -101.40625 38.597656 -106.65625 53.703125 -106.65625 C 64.003906 -106.65625 71.90625 -104.578125 77.40625 -100.421875 C 82.90625 -96.273438 85.65625 -90.851562 85.65625 -84.15625 C 85.65625 -80.351562 84.425781 -77.078125 81.96875 -74.328125 C 79.519531 -71.578125 76.296875 -70.203125 72.296875 -70.203125 C 68.296875 -70.203125 65.09375 -71.273438 62.6875 -73.421875 C 60.289062 -75.578125 59.09375 -78.128906 59.09375 -81.078125 C 59.09375 -84.023438 59.492188 -86.597656 60.296875 -88.796875 L 65.09375 -88.796875 C 65.695312 -90.398438 66 -92.203125 66 -94.203125 C 66 -100.503906 62.445312 -103.65625 55.34375 -103.65625 C 48.25 -103.65625 43.050781 -99.976562 39.75 -92.625 C 36.445312 -85.269531 34.75 -72.59375 34.65625 -54.59375 C 39.851562 -62.695312 47.398438 -66.75 57.296875 -66.75 C 67.203125 -66.75 75.003906 -64.070312 80.703125 -58.71875 C 86.398438 -53.375 89.25 -45.347656 89.25 -34.640625 C 89.25 -23.941406 85.5 -15.242188 78 -8.546875 C 70.5 -1.847656 60.445312 1.5 47.84375 1.5 C 19.34375 1.5 5.09375 -14.398438 5.09375 -46.203125 Z M 49.640625 -61.796875 C 46.242188 -61.796875 43.367188 -60.519531 41.015625 -57.96875 C 38.671875 -55.425781 37.070312 -52.425781 36.21875 -48.96875 C 35.375 -45.519531 34.953125 -41.019531 34.953125 -35.46875 C 34.953125 -29.925781 34.972656 -26.078125 35.015625 -23.921875 C 35.066406 -21.773438 35.21875 -19.222656 35.46875 -16.265625 C 35.71875 -13.316406 36.09375 -11.164062 36.59375 -9.8125 C 37.09375 -8.46875 37.796875 -7.046875 38.703125 -5.546875 C 40.296875 -2.953125 42.84375 -1.65625 46.34375 -1.65625 C 49.84375 -1.65625 52.46875 -2.328125 54.21875 -3.671875 C 55.96875 -5.023438 57.242188 -7.300781 58.046875 -10.5 C 59.242188 -15.195312 59.84375 -21.046875 59.84375 -28.046875 C 59.84375 -35.046875 59.816406 -39.695312 59.765625 -42 C 59.722656 -44.300781 59.597656 -46.722656 59.390625 -49.265625 C 59.191406 -51.816406 58.867188 -53.742188 58.421875 -55.046875 C 57.972656 -56.347656 57.398438 -57.597656 56.703125 -58.796875 C 55.398438 -60.796875 53.046875 -61.796875 49.640625 -61.796875 Z M 49.640625 -61.796875 "/></g></g></g></svg>