<svg xmlns="http://www.w3.org/2000/svg" xmlns:xlink="http://www.w3.org/1999/xlink" width="500" zoomAndPan="magnify" viewBox="0 0 375 374.999991" height="500" preserveAspectRatio="xMidYMid meet" version="1.0"><defs><g/><clipPath id="2d5e8d102e"><path d="M 187.5 0 C 83.945312 0 0 83.945312 0 187.5 C 0 291.054688 83.945312 375 187.5 375 C 291.054688 375 375 291.054688 375 187.5 C 375 83.945312 291.054688 0 187.5 0 Z M 187.5 0 " clip-rule="nonzero"/></clipPath></defs><g clip-path="url(#2d5e8d102e)"><rect x="-37.5" width="450" fill="#000000" y="-37.499999" height="449.999989" fill-opacity="1"/></g><g fill="#ffffff" fill-opacity="1"><g transform="translate(92.953123, 254.999983)"><g><path d="M 86 -21.578125 L 86 0 L 4.234375 0 C 5.171875 -8.132812 7.835938 -15.894531 12.234375 -23.28125 C 16.640625 -30.664062 25.375 -40.421875 38.4375 -52.546875 C 49.945312 -63.222656 56.847656 -70.582031 59.140625 -74.625 C 61.441406 -78.664062 62.59375 -82.675781 62.59375 -86.65625 C 62.59375 -91.914062 61.191406 -95.925781 58.390625 -98.6875 C 55.597656 -101.457031 51.710938 -102.84375 46.734375 -102.84375 C 41.859375 -102.84375 38.007812 -101.375 35.1875 -98.4375 C 32.375 -95.507812 30.742188 -90.644531 30.296875 -83.84375 L 6.96875 -86.15625 C 8.351562 -99 12.695312 -108.226562 20 -113.84375 C 27.3125 -119.457031 36.441406 -122.265625 47.390625 -122.265625 C 59.398438 -122.265625 68.835938 -119 75.703125 -112.46875 C 82.566406 -105.945312 86 -97.925781 86 -88.40625 C 86 -82.875 85.015625 -77.628906 83.046875 -72.671875 C 81.085938 -67.722656 78.003906 -62.535156 73.796875 -57.109375 C 70.972656 -53.515625 65.863281 -48.335938 58.46875 -41.578125 C 51.082031 -34.828125 46.40625 -30.34375 44.4375 -28.125 C 42.476562 -25.914062 40.863281 -23.734375 39.59375 -21.578125 Z M 86 -21.578125 "/></g></g></g><g fill="#ffffff" fill-opacity="1"><g transform="translate(187.494671, 254.999983)"><g><path d="M 6.46875 -32.296875 L 28.890625 -35.03125 C 29.660156 -29.21875 31.609375 -24.816406 34.734375 -21.828125 C 37.859375 -18.835938 41.691406 -17.34375 46.234375 -17.34375 C 50.992188 -17.34375 55.046875 -19.15625 58.390625 -22.78125 C 61.742188 -26.40625 63.421875 -31.347656 63.421875 -37.609375 C 63.421875 -43.359375 61.828125 -47.960938 58.640625 -51.421875 C 55.460938 -54.878906 51.601562 -56.609375 47.0625 -56.609375 C 44.019531 -56.609375 40.453125 -56.054688 36.359375 -54.953125 L 38.9375 -73.953125 L 40.265625 -73.953125 C 45.960938 -73.953125 50.382812 -75.335938 53.53125 -78.109375 C 56.6875 -80.878906 58.265625 -84.695312 58.265625 -89.5625 C 58.265625 -93.65625 57.046875 -96.921875 54.609375 -99.359375 C 52.179688 -101.796875 49.003906 -103.015625 45.078125 -103.015625 C 40.984375 -103.015625 37.550781 -101.628906 34.78125 -98.859375 C 32.007812 -96.097656 30.265625 -92.03125 29.546875 -86.65625 L 8.140625 -90.484375 C 9.628906 -97.835938 11.867188 -103.6875 14.859375 -108.03125 C 17.847656 -112.375 22.039062 -115.832031 27.4375 -118.40625 C 32.832031 -120.976562 38.929688 -122.265625 45.734375 -122.265625 C 56.359375 -122.265625 65.019531 -119.082031 71.71875 -112.71875 C 78.414062 -106.351562 81.765625 -99.109375 81.765625 -90.984375 C 81.765625 -80.296875 75.925781 -71.769531 64.25 -65.40625 C 71.164062 -63.96875 76.722656 -60.632812 80.921875 -55.40625 C 85.128906 -50.175781 87.234375 -43.882812 87.234375 -36.53125 C 87.234375 -25.90625 83.316406 -16.8125 75.484375 -9.25 C 67.660156 -1.695312 57.96875 2.078125 46.40625 2.078125 C 35.394531 2.078125 26.265625 -1.101562 19.015625 -7.46875 C 11.765625 -13.832031 7.582031 -22.109375 6.46875 -32.296875 Z M 6.46875 -32.296875 "/></g></g></g></svg>